<svg xmlns="http://www.w3.org/2000/svg" width="900" height="560" viewBox="0 0 900 560">
<rect width="100%" height="100%" fill="white"/>
<text x="450" y="25" text-anchor="middle" font-family="sans-serif" font-size="20">Trust score vs realized Brier error</text>
<line x1="80.0" y1="45" x2="80.0" y2="490" stroke="#e5e7eb"/>
<text x="80.0" y="514" text-anchor="middle" font-family="sans-serif" font-size="12">0</text>
<line x1="238.0" y1="45" x2="238.0" y2="490" stroke="#e5e7eb"/>
<text x="238.0" y="514" text-anchor="middle" font-family="sans-serif" font-size="12">20</text>
<line x1="396.0" y1="45" x2="396.0" y2="490" stroke="#e5e7eb"/>
<text x="396.0" y="514" text-anchor="middle" font-family="sans-serif" font-size="12">40</text>
<line x1="554.0" y1="45" x2="554.0" y2="490" stroke="#e5e7eb"/>
<text x="554.0" y="514" text-anchor="middle" font-family="sans-serif" font-size="12">60</text>
<line x1="712.0" y1="45" x2="712.0" y2="490" stroke="#e5e7eb"/>
<text x="712.0" y="514" text-anchor="middle" font-family="sans-serif" font-size="12">80</text>
<line x1="870.0" y1="45" x2="870.0" y2="490" stroke="#e5e7eb"/>
<text x="870.0" y="514" text-anchor="middle" font-family="sans-serif" font-size="12">100</text>
<line x1="80" y1="490.0" x2="870" y2="490.0" stroke="#e5e7eb"/>
<text x="68" y="494.0" text-anchor="end" font-family="sans-serif" font-size="12">0.00</text>
<line x1="80" y1="401.0" x2="870" y2="401.0" stroke="#e5e7eb"/>
<text x="68" y="405.0" text-anchor="end" font-family="sans-serif" font-size="12">0.20</text>
<line x1="80" y1="312.0" x2="870" y2="312.0" stroke="#e5e7eb"/>
<text x="68" y="316.0" text-anchor="end" font-family="sans-serif" font-size="12">0.40</text>
<line x1="80" y1="223.0" x2="870" y2="223.0" stroke="#e5e7eb"/>
<text x="68" y="227.0" text-anchor="end" font-family="sans-serif" font-size="12">0.59</text>
<line x1="80" y1="134.0" x2="870" y2="134.0" stroke="#e5e7eb"/>
<text x="68" y="138.0" text-anchor="end" font-family="sans-serif" font-size="12">0.79</text>
<line x1="80" y1="45.0" x2="870" y2="45.0" stroke="#e5e7eb"/>
<text x="68" y="49.0" text-anchor="end" font-family="sans-serif" font-size="12">0.99</text>
<circle cx="719.9" cy="473.7" r="4" fill="#2563eb" fill-opacity="0.65"/>
<circle cx="593.5" cy="490.0" r="4" fill="#2563eb" fill-opacity="0.65"/>
<circle cx="625.1" cy="396.9" r="4" fill="#2563eb" fill-opacity="0.65"/>
<circle cx="577.7" cy="490.0" r="4" fill="#2563eb" fill-opacity="0.65"/>
<circle cx="759.4" cy="490.0" r="4" fill="#2563eb" fill-opacity="0.65"/>
<circle cx="672.5" cy="490.0" r="4" fill="#2563eb" fill-opacity="0.65"/>
<circle cx="672.5" cy="490.0" r="4" fill="#2563eb" fill-opacity="0.65"/>
<circle cx="554.0" cy="481.8" r="4" fill="#2563eb" fill-opacity="0.65"/>
<circle cx="561.9" cy="370.7" r="4" fill="#2563eb" fill-opacity="0.65"/>
<circle cx="554.0" cy="489.9" r="4" fill="#2563eb" fill-opacity="0.65"/>
<circle cx="396.0" cy="396.9" r="4" fill="#2563eb" fill-opacity="0.65"/>
<circle cx="396.0" cy="400.9" r="4" fill="#2563eb" fill-opacity="0.65"/>
<circle cx="625.1" cy="127.6" r="4" fill="#2563eb" fill-opacity="0.65"/>
<circle cx="640.9" cy="490.0" r="4" fill="#2563eb" fill-opacity="0.65"/>
<circle cx="514.5" cy="490.0" r="4" fill="#2563eb" fill-opacity="0.65"/>
<circle cx="340.7" cy="408.7" r="4" fill="#2563eb" fill-opacity="0.65"/>
<circle cx="419.7" cy="443.2" r="4" fill="#2563eb" fill-opacity="0.65"/>
<circle cx="435.5" cy="439.5" r="4" fill="#2563eb" fill-opacity="0.65"/>
<circle cx="546.1" cy="490.0" r="4" fill="#2563eb" fill-opacity="0.65"/>
<circle cx="593.5" cy="489.8" r="4" fill="#2563eb" fill-opacity="0.65"/>
<circle cx="538.2" cy="346.4" r="4" fill="#2563eb" fill-opacity="0.65"/>
<circle cx="467.1" cy="396.9" r="4" fill="#2563eb" fill-opacity="0.65"/>
<circle cx="301.2" cy="404.9" r="4" fill="#2563eb" fill-opacity="0.65"/>
<circle cx="364.4" cy="406.8" r="4" fill="#2563eb" fill-opacity="0.65"/>
<circle cx="467.1" cy="379.8" r="4" fill="#2563eb" fill-opacity="0.65"/>
<circle cx="514.5" cy="384.2" r="4" fill="#2563eb" fill-opacity="0.65"/>
<circle cx="427.6" cy="392.7" r="4" fill="#2563eb" fill-opacity="0.65"/>
<circle cx="396.0" cy="431.7" r="4" fill="#2563eb" fill-opacity="0.65"/>
<circle cx="427.6" cy="390.6" r="4" fill="#2563eb" fill-opacity="0.65"/>
<circle cx="403.9" cy="368.3" r="4" fill="#2563eb" fill-opacity="0.65"/>
<circle cx="340.7" cy="419.6" r="4" fill="#2563eb" fill-opacity="0.65"/>
<circle cx="396.0" cy="408.2" r="4" fill="#2563eb" fill-opacity="0.65"/>
<circle cx="411.8" cy="382.0" r="4" fill="#2563eb" fill-opacity="0.65"/>
<circle cx="443.4" cy="386.3" r="4" fill="#2563eb" fill-opacity="0.65"/>
<circle cx="411.8" cy="394.8" r="4" fill="#2563eb" fill-opacity="0.65"/>
<circle cx="396.0" cy="417.1" r="4" fill="#2563eb" fill-opacity="0.65"/>
<circle cx="475.0" cy="45.0" r="4" fill="#2563eb" fill-opacity="0.65"/>
<circle cx="530.3" cy="490.0" r="4" fill="#2563eb" fill-opacity="0.65"/>
<circle cx="569.8" cy="490.0" r="4" fill="#2563eb" fill-opacity="0.65"/>
<circle cx="609.3" cy="489.9" r="4" fill="#2563eb" fill-opacity="0.65"/>
<circle cx="601.4" cy="490.0" r="4" fill="#2563eb" fill-opacity="0.65"/>
<line x1="80.0" y1="329.1" x2="870.0" y2="490.0" stroke="#dc2626" stroke-width="3"/>
<polyline points="238.0,410.0 455.2,379.6 573.8,437.9 692.2,485.9 810.8,490.0" fill="none" stroke="#16a34a" stroke-width="3"/>
<line x1="80" y1="490" x2="870" y2="490" stroke="#111827"/>
<line x1="80" y1="45" x2="80" y2="490" stroke="#111827"/>
<text x="475.0" y="542" text-anchor="middle" font-family="sans-serif" font-size="14">Composite trust score</text>
<text x="20" y="267.5" text-anchor="middle" font-family="sans-serif" font-size="14" transform="rotate(-90 20 267.5)">Realized Brier error</text>
</svg>